{
.formatVersion = 3;
DisplayStrings = (
"thisntftophijmlfuvwyrbqdt\rgancezxskblthabqdgpy\rnpndngnqnbn\rnininininiinonomnomini\riviviviwiwiwininijiji \rninja hatorififty forty toffee \rreferee fold freereverted \rretrograde renegadet\rkejriwal jokervvvvvv \rninininini number  ",
ntninf,
f
);
axes = (
{
name = Weight;
tag = wght;
}
);
familyName = blackletterins;
customParameters = (
{
name = glyphOrder;
value = (
.notdef,
n,
a,
o,
u,
m,
i,
j,
k,
l,
e,
f,
t,
r,
h,
v,
w,
y,
z,
c,
q,
b,
g,
p,
d,
s,
x,
CR
);
}
);
featurePrefixes = (
{
code = "#> languagesystem\nlanguagesystem DFLT dflt;\nlanguagesystem latn dflt;\n#< languagesystem\n";
tag = Languagesystems;
}
);
fontMaster = (
{
axesValues = (
400
);
customParameters = (
{
name = typoAscender;
value = 750;
},
{
name = typoDescender;
value = -250;
},
{
name = typoLineGap;
value = 100;
},
{
name = winAscent;
value = 750;
},
{
name = winDescent;
value = 250;
},
{
name = underlineThickness;
value = 50;
},
{
name = underlinePosition;
value = -100;
},
{
name = strikeoutPosition;
value = 300;
},
{
name = strikeoutSize;
value = 50;
},
{
name = subscriptXOffset;
value = 0;
},
{
name = subscriptXSize;
value = 650;
},
{
name = subscriptYOffset;
value = 75;
},
{
name = subscriptYSize;
value = 600;
},
{
name = superscriptXOffset;
value = 0;
},
{
name = superscriptXSize;
value = 650;
},
{
name = superscriptYOffset;
value = 350;
},
{
name = superscriptYSize;
value = 600;
},
{
name = hheaAscender;
value = 750;
},
{
name = hheaDescender;
value = -250;
},
{
name = hheaLineGap;
value = 100;
}
);
guides = (
{
position = "{0, 250}";
},
{
position = "{0, 250}";
}
);
id = "49D686F5-66D9-47EB-9547-64EB47576527";
metricValues = (
{
pos = 750;
},
{
pos = 700;
},
{
pos = -250;
},
{
pos = 0;
},
{
pos = 500;
}
);
},
{
axesValues = (
700
);
customParameters = (
{
name = typoAscender;
value = 750;
},
{
name = typoDescender;
value = -250;
},
{
name = typoLineGap;
value = 100;
},
{
name = winAscent;
value = 750;
},
{
name = winDescent;
value = 250;

glyphs = (
{
glyphname = n;
layers = (
{
guides = (
{
position = "{0, 502}";
},
{
position = "{0, 149}";
}
);
layerId = "00243FEC-99B5-4F59-ACA5-E4FD9E2B7CEE";
shapes = (
{
closed = 1;
nodes = (
(-34.989,402.082,l),
(73.166,502.152,l),
(144.933,433.417,l),
(266.229,501.141,l),
(456.26,379.845,l),
(418.86,318.186,l),
(418.86,154.436,l),
(422.903,151.404,l),
(444.13,181.728,l),
(518.929,129.166,l),
(427.957,-1.227,l),
(355.18,49.313,l),
(271.283,106.929,l),
(298.575,147.361,l),
(298.575,334.359,l),
(256.121,359.629,l),
(180.311,313.132,l),
(180.311,152.415,l),
(182.333,150.393,l),
(203.56,180.717,l),
(278.359,128.156,l),
(187.387,-2.238,l),
(112.588,50.324,l),
(32.734,104.907,l),
(60.026,145.339,l),
(60.026,358.618,l),
(59.015,362.661,l),
(23.637,331.326,l)
);
}
);
width = 480;
},
{
layerId = "49D686F5-66D9-47EB-9547-64EB47576527";
shapes = (
{
closed = 1;
nodes = (
(5,451,l),
(65,504,l),
(148,423,l),
(263,503,l),
(381,367,l),
(364,352,l),
(364,79,l),
(379,70,l),
(397,91,l),
(439,55,l),
(389,-4,l),
(330,34,l),
(295,56,l),
(308,77,l),
(308,366,l),
(253,429,l),
(140,349,l),
(140,79,l),
(155,70,l),
(173,91,l),
(215,55,l),
(165,-4,l),
(106,34,l),
(71,56,l),
(84,77,l),
(84,407,l),
(63,428,l),
(41,409,l)
);
}
);
width = 448;
}
);
unicode = 110;
},
{
glyphname = a;
layers = (
{
layerId = "00243FEC-99B5-4F59-ACA5-E4FD9E2B7CEE";
shapes = (
{
closed = 1;
nodes = (
(404,399,l),
(377,340,l),
(377,152,l),
(379,152,l),
(401,168,l),
(472,78,l),
(375,-3,l),
(278,49,l),
(162,-2,l),
(18,51,l),
(18,243,l),
(73,268,l),
(10,348,l),
(10,355,l),
(177,501,l)
);
},
{
closed = 1;
nodes = (
(157,337,l),
(181,313,o),
(215,290,o),
(258,290,c),
(258,344,l),
(197,371,l)
);
},
{
closed = 1;
nodes = (
(128,127,l),
(158,116,l),
(257,160,l),
(257,180,l),
(227,179,o),
(200,184,o),
(175,194,c),
(128,173,l)
);
}
);
width = 438;
},
{
layerId = "49D686F5-66D9-47EB-9547-64EB47576527";
shapes = (
{
closed = 1;
nodes = (
(360,399,l),
(336,353,l),
(336,79,l),
(351,70,l),
(369,91,l),
(411,55,l),
(361,-1,l),
(280,50,l),
(161,-1,l),
(56,59,l),
(56,218,l),
(139,277,l),
(52,367,l),
(52,374,l),
(165,501,l)
);
},
{
closed = 1;
nodes = (
(121,367,l),
(164.158,319.151,o),
(192.442,295.061,o),
(280,265.84,c),
(280,377,l),
(177,426,l)
);
},
{
closed = 1;
nodes = (
(112,91,l),
(165,60,l),
(280,112,l),
(280,207,l),
(243,218,o),
(215,232,o),
(191,243,c),
(112,188,l)
);
}
);
width = 420;
}
);
unicode = 97;
},
{
glyphname = o;
layers = (
{
guides = (
{
angle = 90;
position = "{481, 0}";
},
{
angle = 90;
position = "{493, 0}";
},
{
position = "{0, 501}";
}
);
layerId = "00243FEC-99B5-4F59-ACA5-E4FD9E2B7CEE";
shapes = (
{
closed = 1;
nodes = (
(28,72,l),
(40,108,l),
(40,407,l),
(227,500,l),
(402,422,l),
(402,421.326,l),
(424,411,l),
(402,363.48,l),
(402,92,l),
(241,1,l)
);
},
{
closed = 1;
nodes = (
(160,154.282,l),
(229,131,l),
(282,162,l),
(282,344,l),
(229,368,l),
(160,333,l)
);
}
);
width = 440;
},
{
guides = (
{
angle = 90;
position = "{210, 0}";
},
{
angle = 90;
position = "{220, 0}";
}
);
layerId = "49D686F5-66D9-47EB-9547-64EB47576527";
shapes = (
{
closed = 1;
nodes = (
(44,82,l),
(69,130.077,l),
(69,406,l),
(220,505,l),
(349,421,l),
(349,420.439,l),
(377,402,l),
(349,359.067,l),
(349,92,l),
(212,-4,l)
);
},
{
closed = 1;
nodes = (
(125,104.101,l),
(208,62,l),
(293,122,l),
(293,391,l),
(220,439,l),
(125,376,l)
);
}
);
width = 420;
}
);
unicode = 111;
},
{
glyphname = u;
layers = (
{
layerId = "00243FEC-99B5-4F59-ACA5-E4FD9E2B7CEE";
shapes = (
{
closed = 1;
nodes = (
(515.929,97.832,l),
(407.774,-2.238,l),
(336.007,66.497,l),
(214.711,-1.227,l),
(24.68,120.069,l),
(62.08,181.728,l),
(62.08,345.478,l),
(58.037,348.51,l),
(36.81,318.186,l),
(-37.989,370.748,l),
(52.983,501.141,l),
(125.76,450.601,l),
(209.657,392.985,l),
(182.365,352.553,l),
(182.365,165.555,l),
(224.819,140.285,l),
(300.629,186.782,l),
(300.629,347.499,l),
(298.607,349.521,l),
(277.38,319.197,l),
(202.581,371.758,l),
(293.553,502.152,l),
(368.352,449.59,l),
(448.206,395.007,l),
(420.914,354.575,l),
(420.914,141.296,l),
(421.925,137.253,l),
(457.303,168.588,l)
);
}
);
width = 481;
},
{
layerId = "49D686F5-66D9-47EB-9547-64EB47576527";
shapes = (
{
closed = 1;
nodes = (
(439,48,l),
(379,-5,l),
(296.057,75.92,l),
(181,-4,l),
(63,132,l),
(80,146.571,l),
(80,420,l),
(65,429,l),
(47,408,l),
(5,444,l),
(55,503,l),
(114,465,l),
(149,443,l),
(136,422.2,l),
(136,132.674,l),
(191,70,l),
(304,149.552,l),
(304,420,l),
(289,429,l),
(271,408,l),
(229,444,l),
(279,503,l),
(337.732,464.571,l),
(373,443,l),
(360,422.2,l),
(360,92.177,l),
(381,71,l),
(403,90,l)
);
}
);
width = 447;
}
);
unicode = 117;
},
{
glyphname = m;
layers = (
{
layerId = "00243FEC-99B5-4F59-ACA5-E4FD9E2B7CEE";
shapes = (
{
closed = 1;
nodes = (
(-35,402,l),
(73,502,l),
(145,433,l),
(266,501,l),
(378,430,l),
(505,501,l),
(696,380,l),
(659,318,l),
(659,154,l),
(663,151,l),
(684,182,l),
(759,129,l),
(668,0,l),
(511,107,l),
(539,147,l),
(539,334,l),
(495,360,l),
(419,313,l),
(419,154,l),
(422,152,l),
(443,181,l),
(517,128,l),
(428,0,l),
(271,107,l),
(299,147,l),
(299,334,l),
(256,360,l),
(180,313,l),
(180,152,l),
(182,150,l),
(204,181,l),
(278,128,l),
(187,-1,l),
(33,105,l),
(60,145,l),
(60,360,l),
(57,360,l),
(24,331,l)
);
}
);
width = 722;
},
{
layerId = "49D686F5-66D9-47EB-9547-64EB47576527";
shapes = (
{
closed = 1;
nodes = (
(5,451,l),
(65,504,l),
(147.943,423.08,l),
(263,503,l),
(347.808,405.255,l),
(486,503,l),
(605,367,l),
(588,352.429,l),
(588,79,l),
(603,70,l),
(621,91,l),
(663,55,l),
(613,-4,l),
(519,56,l),
(532,76.8,l),
(532,366.741,l),
(478,429,l),
(364,348.097,l),
(364,79,l),
(379,70,l),
(397,91,l),
(439,55,l),
(389,-4,l),
(295,56,l),
(308,76.8,l),
(308,366.326,l),
(253,429,l),
(140,349.448,l),
(140,79,l),
(155,70,l),
(173,91,l),
(215,55,l),
(165,-4,l),
(71,56,l),
(84,76.8,l),
(84,406.823,l),
(63,428,l),
(41,409,l)
);
}
);
width = 671;
}
);
unicode = 109;
},
{
glyphname = i;
layers = (
{
layerId = "00243FEC-99B5-4F59-ACA5-E4FD9E2B7CEE";
shapes = (
{
closed = 1;
nodes = (
(115,510,l),
(29,594,l),
(99,666,l),
(185,582,l)
);
},
{
closed = 1;
nodes = (
(-35,402,l),
(73,502,l),
(205,390,l),
(180,363,l),
(180,152,l),
(182,150,l),
(204,181,l),
(278,128,l),
(187,-2,l),
(113,50,l),
(33,105,l),
(60,145,l),
(60,361,l),
(27,333,l)
);
}
);
width = 240;
},
{
layerId = "49D686F5-66D9-47EB-9547-64EB47576527";
shapes = (
{
closed = 1;
nodes = (
(119,550,l),
(81,590,l),
(131,638,l),
(169,598,l)
);
},
{
closed = 1;
nodes = (
(5,451,l),
(65,504,l),
(161,410,l),
(140,391,l),
(140,79,l),
(155,70,l),
(173,91,l),
(215,55,l),
(165,-4,l),
(71,56,l),
(84,76.8,l),
(84,406.823,l),
(63,428,l),
(41,409,l)
);
}
);
width = 224;
}
);
unicode = 105;
},
{
glyphname = j;
layers = (
{
guides = (
{
angle = 90;
position = "{-71.8, 0}";
}
);
layerId = "00243FEC-99B5-4F59-ACA5-E4FD9E2B7CEE";
shapes = (
{
closed = 1;
nodes = (
(113.609,515.292,l),
(26.68,600.199,l),
(97.436,672.977,l),
(184.365,588.07,l)
);
},
{
closed = 1;
nodes = (
(-38.011,406.126,l),
(71.156,507.206,l),
(204.581,393.996,l),
(179.311,366.704,l),
(179.311,-48.734,l),
(41.842,-181.149,l),
(-51.151,-105.339,l),
(61.048,-0.216,l),
(60.037,343.456,l),
(60.037,364.683,l),
(24.659,336.38,l)
);
}
);
width = 220;
},
{
guides = (
{
angle = 90;
position = "{6, 0}";
}
);
layerId = "49D686F5-66D9-47EB-9547-64EB47576527";
shapes = (
{
closed = 1;
nodes = (
(96,590,l),
(146,638,l),
(184,598,l),
(134,550,l)
);
},
{
closed = 1;
nodes = (
(20,451,l),
(80,504,l),
(177,409,l),
(155,389.095,l),
(155,-28,l),
(44,-136,l),
(4,-96,l),
(99,-4,l),
(99,406.808,l),
(78,428,l),
(56,409,l)
);
}
);
width = 238;
}
);
unicode = 106;
},
{
glyphname = k;
layers = (
{
layerId = "00243FEC-99B5-4F59-ACA5-E4FD9E2B7CEE";
shapes = (
{
closed = 1;
nodes = (
(-65,570,l),
(57,703,l),
(204,570,l),
(180,543,l),
(180,463,l),
(304,504,l),
(420,451,l),
(420,284,l),
(343,256,l),
(443,143,l),
(483,178,l),
(549,103,l),
(426,-4,l),
(234,212,l),
(180,190,l),
(180,150,l),
(181,150,l),
(208,177,l),
(288,101,l),
(187,-2,l),
(33,105,l),
(60,143,l),
(60,537,l),
(50,546,l),
(9,502,l)
);
},
{
closed = 1;
nodes = (
(180,308.982,l),
(310,361,l),
(310,387,l),
(292,393,l),
(180,348.042,l)
);
}
);
width = 481;
},
{
layerId = "49D686F5-66D9-47EB-9547-64EB47576527";
shapes = (
{
closed = 1;
nodes = (
(5,641,l),
(65,694,l),
(161,600,l),
(140,581,l),
(140,426.868,l),
(254,500,l),
(348,415,l),
(348,334,l),
(218.874,249.128,l),
(371,80,l),
(394,103,l),
(434,63,l),
(369,-2,l),
(171.013,217.671,l),
(140,197.286,l),
(140,79,l),
(155,70,l),
(173,91,l),
(215,55,l),
(165,-4,l),
(71,56,l),
(84,76.8,l),
(84,596.823,l),
(63,618,l),
(41,599,l)
);
},
{
closed = 1;
nodes = (
(140,263.209,l),
(292,364,l),
(292,391,l),
(248,430,l),
(140,359.756,l)
);
}
);
width = 420;
}
);
unicode = 107;
},
{
glyphname = l;
layers = (
{
layerId = "00243FEC-99B5-4F59-ACA5-E4FD9E2B7CEE";
shapes = (
{
closed = 1;
nodes = (
(-66,567,l),
(47,700,l),
(209,573,l),
(179,534,l),
(179,154.284,l),
(185,150,l),
(223,203,l),
(302,142,l),
(199,-2,l),
(38,104,l),
(59,134.882,l),
(59,536,l),
(48,545,l),
(11,502,l)
);
}
);
width = 240;
},
{
layerId = "49D686F5-66D9-47EB-9547-64EB47576527";
shapes = (
{
closed = 1;
nodes = (
(5,641,l),
(65,694,l),
(161,600,l),
(140,581,l),
(140,79,l),
(155,70,l),
(173,91,l),
(215,55,l),
(165,-4,l),
(71,56,l),
(84,76.8,l),
(84,596.823,l),
(63,618,l),
(41,599,l)
);
}
);
width = 220;
}
);
unicode = 108;
},
{
glyphname = e;
layers = (
{
guides = (
{
position = "{0, 500}";
},
{
angle = 90;
position = "{403, 0}";
}
);
layerId = "00243FEC-99B5-4F59-ACA5-E4FD9E2B7CEE";
shapes = (
{
closed = 1;
nodes = (
(9,408,l),
(236,503,l),
(380,364,l),
(380,310,l),
(321,219,o),
(236,185,o),
(160,183,c),
(160,137,l),
(207,120,l),
(207,120,o),
(352,193,o),
(352,193,c),
(404,97,l),
(216,0,l),
(13,72,l),
(41,149,l),
(41,325,l)
);
},
{
closed = 1;
nodes = (
(160,294.33,l),
(189.973,299.766,o),
(225.175,310.749,o),
(254,333,c),
(210,375,l),
(160,355.18,l)
);
}
);
width = 400;
},
{
layerId = "49D686F5-66D9-47EB-9547-64EB47576527";
shapes = (
{
closed = 1;
nodes = (
(46,399,l),
(46,399,o),
(241,507,o),
(241,507,c),
(350,374,l),
(350,369,l),
(272,281,o),
(225,250,o),
(126,217,c),
(126,102,l),
(194,62,l),
(338,163,l),
(370,117,l),
(196,-4,l),
(41,88,l),
(70,136,l),
(70,353,l)
);
},
{
closed = 1;
nodes = (
(126,266,l),
(214,295,o),
(245,318,o),
(289,366,c),
(229,435,l),
(126,377,l)
);
}
);
width = 379;
}
);
unicode = 101;
},
{
glyphname = f;
layers = (
{
layerId = "00243FEC-99B5-4F59-ACA5-E4FD9E2B7CEE";
shapes = (
{
closed = 1;
nodes = (
(13,359,l),
(13,459,l),
(59,459,l),
(59,573,l),
(222,701,l),
(365,596,l),
(295,500,l),
(224,551,l),
(179,515,l),
(179,459,l),
(299,459,l),
(299,359,l),
(179,359,l),
(179,159,l),
(188,153,l),
(250,230,l),
(328,168,l),
(193,-1,l),
(39,110,l),
(59,136,l),
(59,359,l)
);
}
);
width = 320;
},
{
layerId = "49D686F5-66D9-47EB-9547-64EB47576527";
shapes = (
{
closed = 1;
nodes = (
(40,435,l),
(40,491,l),
(82.807,491,l),
(83,591,l),
(215,704,l),
(320,604,l),
(282,564,l),
(213,628,l),
(139,565,l),
(138.849,491,l),
(277,491,l),
(277,435,l),
(138.735,435,l),
(138.031,89.135,l),
(170,68,l),
(232,124,l),
(270,82,l),
(176,-2,l),
(66,67,l),
(82.036,92.658,l),
(82.698,435,l)
);
}
);
width = 293;
}
);
unicode = 102;
},
{
glyphname = t;
layers = (
{
guides = (
{
angle = 90;
position = "{-3021.4, 0}";
},
{
angle = 90;
position = "{-3327.4, 0}";
},
{
angle = 90;
position = "{-3023.8, 0}";
}
);
layerId = "00243FEC-99B5-4F59-ACA5-E4FD9E2B7CEE";
shapes = (
{
closed = 1;
nodes = (
(16,360,l),
(16,460,l),
(59,460,l),
(59,581,l),
(179,581,l),
(179,460,l),
(299,460,l),
(299,360,l),
(179,360,l),
(179,158,l),
(189,150,l),
(260,229,l),
(338,167,l),
(189,0,l),
(39,109,l),
(59,135,l),
(59,360,l)
);
}
);
width = 301;
},
{
guides = (
{
angle = 90;
position = "{-2492, 0}";
},
{
angle = 90;
position = "{-2747, 0}";
},
{
angle = 90;
position = "{-2494, 0}";
}
);
layerId = "49D686F5-66D9-47EB-9547-64EB47576527";
shapes = (
{
closed = 1;
nodes = (
(41,435,l),
(41,491,l),
(83.81,491,l),
(84,589,l),
(140,589,l),
(139.81,491,l),
(278,491,l),
(278,435,l),
(139.701,435,l),
(139.031,90.169,l),
(176,68,l),
(254,148,l),
(292,109,l),
(180,-4,l),
(55,81,l),
(83.092,121.382,l),
(83.701,435,l)
);
}
);
width = 300;
}
);
unicode = 116;
},
{
glyphname = r;
layers = (
{
layerId = "00243FEC-99B5-4F59-ACA5-E4FD9E2B7CEE";
shapes = (
{
closed = 1;
nodes = (
(-37.011,406.126,l),
(72.156,503.162,l),
(173.9,419.917,l),
(259.154,500.13,l),
(370.342,400.061,l),
(301.607,327.283,l),
(261.175,364.683,l),
(180.311,285.389,l),
(180.311,153.426,l),
(182.333,151.404,l),
(204.57,182.739,l),
(279.37,129.166,l),
(187.387,-2.238,l),
(31.724,105.918,l),
(59.015,146.35,l),
(59.015,364.683,l),
(58.004,364.683,l),
(25.659,336.38,l)
);
}
);
width = 340;
},
{
layerId = "49D686F5-66D9-47EB-9547-64EB47576527";
shapes = (
{
closed = 1;
nodes = (
(5,451,l),
(65,504,l),
(144.892,426.108,l),
(227,507,l),
(308,416,l),
(266,378,l),
(225,425,l),
(140,341.828,l),
(140,79,l),
(155,70,l),
(173,91,l),
(215,55,l),
(165,-4,l),
(71,56,l),
(84,76.8,l),
(84,407,l),
(63,428,l),
(41,409,l)
);
}
);
width = 308;
}
);
unicode = 114;
},
{
glyphname = h;
layers = (
{
layerId = "00243FEC-99B5-4F59-ACA5-E4FD9E2B7CEE";
shapes = (
{
closed = 1;
nodes = (
(-66,567,l),
(47,700,l),
(209,573,l),
(179,534,l),
(179,451.545,l),
(267,501,l),
(457,380,l),
(420,318,l),
(420,154,l),
(424,151,l),
(445,182,l),
(520,129,l),
(429,-1,l),
(272,107,l),
(300,147,l),
(300,334,l),
(257,360,l),
(179,308.302,l),
(179,154,l),
(185,150,l),
(223,203,l),
(292,152,l),
(189,2,l),
(38,104,l),
(59,135,l),
(59,536,l),
(48,545,l),
(11,502,l)
);
}
);
width = 480;
},
{
layerId = "49D686F5-66D9-47EB-9547-64EB47576527";
shapes = (
{
closed = 1;
nodes = (
(5,641,l),
(65,694,l),
(161,600,l),
(140,581,l),
(140,417.563,l),
(263,503,l),
(381,367,l),
(364,352.429,l),
(364,79,l),
(379,70,l),
(397,91,l),
(439,55,l),
(389,-4,l),
(295,56,l),
(308,76.8,l),
(308,366.326,l),
(253,429,l),
(140,349.448,l),
(140,79,l),
(155,70,l),
(173,91,l),
(215,55,l),
(165,-4,l),
(71,56,l),
(84,76.8,l),
(84,596.823,l),
(63,618,l),
(41,599,l)
);
}
);
width = 448;
}
);
unicode = 104;
},
{
glyphname = v;
layers = (
{
layerId = "00243FEC-99B5-4F59-ACA5-E4FD9E2B7CEE";
shapes = (
{
closed = 1;
nodes = (
(60,108,l),
(59,348,l),
(57,351,l),
(34,320,l),
(-40,374,l),
(52,505,l),
(207,397,l),
(180,357,l),
(180,174,l),
(227,141,l),
(300,189,l),
(300,348,l),
(298,351,l),
(275,320,l),
(201,374,l),
(293,505,l),
(448,397,l),
(421,357,l),
(421,140,l),
(225,-2,l)
);
}
);
width = 459;
},
{
layerId = "49D686F5-66D9-47EB-9547-64EB47576527";
shapes = (
{
closed = 1;
nodes = (
(87,113,l),
(87,420,l),
(75,429,l),
(53,407,l),
(13,445,l),
(67,503,l),
(157,440,l),
(143,420,l),
(143,135,l),
(203,70,l),
(311,149,l),
(311,420,l),
(299,429,l),
(277,407,l),
(237,445,l),
(291,503,l),
(381,440,l),
(367,420,l),
(367,121,l),
(195,-4,l)
);
}
);
width = 433;
}
);
unicode = 118;
},
{
glyphname = w;
layers = (
{
layerId = "00243FEC-99B5-4F59-ACA5-E4FD9E2B7CEE";
shapes = (
{
closed = 1;
nodes = (
(-44,373,l),
(48,504,l),
(207,395,l),
(178,355,l),
(178,174,l),
(226,141,l),
(299,189,l),
(299,348,l),
(297,351,l),
(274,320,l),
(200,374,l),
(292,505,l),
(447,397,l),
(420,357,l),
(420,174.176,l),
(467,141,l),
(540,189,l),
(540,348,l),
(538,351,l),
(515,320,l),
(441,374,l),
(533,505,l),
(688,397,l),
(661,357,l),
(661,140,l),
(465,-2,l),
(340.525,82.421,l),
(224,-2,l),
(22,135,l),
(57,186,l),
(57,346,l),
(53,350,l),
(32,319,l)
);
}
);
width = 700;
},
{
layerId = "49D686F5-66D9-47EB-9547-64EB47576527";
shapes = (
{
closed = 1;
nodes = (
(10,445,l),
(64,503,l),
(157,438,l),
(140,413.562,l),
(140,131.484,l),
(199,70,l),
(308,149,l),
(308,420,l),
(296,429,l),
(274,407,l),
(234,445,l),
(288,503,l),
(378,440,l),
(364,419.875,l),
(364,135.275,l),
(424,70,l),
(532,149,l),
(532,420,l),
(520,429,l),
(498,407,l),
(458,445,l),
(512,503,l),
(602,440,l),
(588,419.875,l),
(588,121,l),
(416,-4,l),
(325.988,93.213,l),
(193,-4,l),
(64,131,l),
(84,150,l),
(84,420,l),
(72,429,l),
(50,407,l)
);
}
);
width = 657;
}
);
unicode = 119;
},
{
glyphname = y;
layers = (
{
layerId = "00243FEC-99B5-4F59-ACA5-E4FD9E2B7CEE";
shapes = (
{
closed = 1;
nodes = (
(-43,371,l),
(49,502,l),
(208,393,l),
(179,353,l),
(179,172,l),
(227,139,l),
(300,187,l),
(300,346,l),
(298,349,l),
(275,318,l),
(201,372,l),
(293,503,l),
(448,395,l),
(421,355,l),
(421,-70,l),
(222,-195,l),
(14,-63,l),
(78,39,l),
(222,-53,l),
(300,-4,l),
(300,50.954,l),
(225,-3,l),
(23,133,l),
(58,184,l),
(58,344,l),
(54,348,l),
(33,317,l)
);
}
);
width = 459;
},
{
layerId = "49D686F5-66D9-47EB-9547-64EB47576527";
shapes = (
{
closed = 1;
nodes = (
(10,445,l),
(64,503,l),
(157,438,l),
(140,413.562,l),
(140,118.66,l),
(197,75,l),
(308,150,l),
(308,420,l),
(296,429,l),
(274,407,l),
(234,445,l),
(288,503,l),
(378,440,l),
(364,419.875,l),
(364,-52,l),
(189,-138,l),
(52,-48,l),
(82,-2,l),
(193,-74,l),
(308,-18,l),
(308,82.556,l),
(195,7,l),
(69,103,l),
(84,122.412,l),
(84,420,l),
(72,429,l),
(50,407,l)
);
}
);
width = 433;
}
);
unicode = 121;
},
{
glyphname = z;
layers = (
{
layerId = "00243FEC-99B5-4F59-ACA5-E4FD9E2B7CEE";
shapes = (
{
closed = 1;
nodes = (
(1.41,407.928,l),
(64.948,480.033,l),
(421.167,480.08,l),
(425.885,470.652,l),
(304.751,299.887,l),
(365.05,299.887,l),
(365.05,206.547,l),
(238.539,206.547,l),
(179.611,123.474,l),
(335.182,123.474,l),
(358.545,153.483,l),
(437.521,89.732,l),
(383.924,20.8,l),
(-6.24,20.754,l),
(-10.959,30.181,l),
(114.148,206.547,l),
(71.866,206.547,l),
(71.866,299.887,l),
(180.36,299.887,l),
(235.316,377.359,l),
(109.934,377.359,l),
(76.355,339.323,l)
);
}
);
width = 439;
},
{
guides = (
{
position = "{0, 224}";
}
);
layerId = "49D686F5-66D9-47EB-9547-64EB47576527";
shapes = (
{
closed = 1;
nodes = (
(28,422,l),
(80,484,l),
(378,484,l),
(379,483,l),
(254,280,l),
(350,280,l),
(350,224,l),
(220,224,l),
(128,74,l),
(327,74,l),
(362,118,l),
(406,82,l),
(353,18,l),
(30,18,l),
(29,19,l),
(154,224,l),
(70,224,l),
(70,280,l),
(188,280,l),
(280,428,l),
(106,428,l),
(72,386,l)
);
}
);
width = 420;
}
);
unicode = 122;
},
{
glyphname = c;
layers = (
{
layerId = "00243FEC-99B5-4F59-ACA5-E4FD9E2B7CEE";
shapes = (
{
closed = 1;
nodes = (
(40,413,l),
(248,502,l),
(340,441,l),
(403,399,l),
(337,299,l),
(236,366,l),
(212,356,l),
(160,333,l),
(160,161.667,l),
(243,134,l),
(331,208,l),
(409,116,l),
(269,-2,l),
(25,80,l),
(40,125,l)
);
}
);
width = 401;
},
{
layerId = "49D686F5-66D9-47EB-9547-64EB47576527";
shapes = (
{
closed = 1;
nodes = (
(69,416,l),
(214,505,l),
(313,429,l),
(336,450,l),
(374,410,l),
(317,355,l),
(212,437,l),
(125,383,l),
(125,102.848,l),
(194,62,l),
(338,163,l),
(370,117,l),
(196,-4,l),
(41,88,l),
(69,136,l)
);
}
);
width = 380;
}
);
unicode = 99;
},
{
glyphname = q;
layers = (
{
guides = (
{
angle = 90;
position = "{215, 0}";
}
);
layerId = "00243FEC-99B5-4F59-ACA5-E4FD9E2B7CEE";
shapes = (
{
closed = 1;
nodes = (
(39,405,l),
(226,498,l),
(372.584,431.063,l),
(373,432,l),
(422,410,l),
(399,358.25,l),
(399,-200,l),
(280,-200,l),
(280,25.709,l),
(241,3,l),
(27,75,l),
(39.989,113.283,l)
);
},
{
closed = 1;
nodes = (
(159,155.667,l),
(227,133,l),
(280,163,l),
(280,343,l),
(228,366,l),
(159,331,l)
);
}
);
width = 439;
},
{
guides = (
{
angle = 90;
position = "{220, 0}";
}
);
layerId = "49D686F5-66D9-47EB-9547-64EB47576527";
shapes = (
{
closed = 1;
nodes = (
(69,406,l),
(220,505,l),
(349,421,l),
(349,420.439,l),
(377,402,l),
(349,359.067,l),
(349,-140,l),
(293,-140,l),
(293,52.759,l),
(212,-4,l),
(44,82,l),
(69,130.077,l)
);
},
{
closed = 1;
nodes = (
(125,104.101,l),
(208,62,l),
(293,122,l),
(293,391,l),
(220,439,l),
(125,376,l)
);
}
);
width = 420;
}
);
unicode = 113;
},
{
glyphname = b;
layers = (
{
layerId = "00243FEC-99B5-4F59-ACA5-E4FD9E2B7CEE";
shapes = (
{
closed = 1;
nodes = (
(-66,567,l),
(47,700,l),
(209,573,l),
(179,534,l),
(179,466.182,l),
(247,500,l),
(444,411,l),
(422,363,l),
(422,92,l),
(261,1,l),
(48,72,l),
(59,135,l),
(59,536,l),
(48,545,l),
(11,502,l)
);
},
{
closed = 1;
nodes = (
(180,154,l),
(249,131,l),
(302,162,l),
(302,344,l),
(249,368,l),
(180,333,l)
);
}
);
width = 460;
},
{
layerId = "49D686F5-66D9-47EB-9547-64EB47576527";
shapes = (
{
closed = 1;
nodes = (
(7,636,l),
(57,695,l),
(153,634,l),
(138,610,l),
(138,449.957,l),
(220,507,l),
(388,421,l),
(363,372.923,l),
(363,97,l),
(212,-2,l),
(56,96,l),
(82.818,141.973,l),
(82,611.357,l),
(67,621,l),
(49,600,l)
);
},
{
closed = 1;
nodes = (
(139,112,l),
(212,64,l),
(307,127,l),
(307,398.899,l),
(224,441,l),
(138,381,l)
);
}
);
width = 420;
}
);
unicode = 98;
},
{
glyphname = g;
layers = (
{
layerId = "00243FEC-99B5-4F59-ACA5-E4FD9E2B7CEE";
shapes = (
{
closed = 1;
nodes = (
(40,413,l),
(225,503,l),
(424,416,l),
(400,367.077,l),
(400,-100,l),
(247,-196,l),
(12,-108,l),
(54,4,l),
(233,-64,l),
(281,-34,l),
(281,28.884,l),
(228,3,l),
(27,70,l),
(40.98,111.204,l)
);
},
{
closed = 1;
nodes = (
(160,150.742,l),
(220,131,l),
(281,161,l),
(280,351,l),
(229,373,l),
(160,339,l)
);
}
);
width = 441;
},
{
layerId = "49D686F5-66D9-47EB-9547-64EB47576527";
shapes = (
{
closed = 1;
nodes = (
(69,411,l),
(206,507,l),
(374,421,l),
(349,372.923,l),
(349,-45,l),
(212,-139,l),
(57,-59,l),
(83,-9,l),
(208,-73,l),
(293,-15,l),
(293,60.285,l),
(198,-2,l),
(41,99,l),
(69,143.8,l)
);
},
{
closed = 1;
nodes = (
(125,112,l),
(198,64,l),
(293,127,l),
(293,398.899,l),
(210,441,l),
(125,381,l)
);
}
);
width = 420;
}
);
unicode = 103;
},
{
glyphname = p;
layers = (
{
layerId = "00243FEC-99B5-4F59-ACA5-E4FD9E2B7CEE";
shapes = (
{
closed = 1;
nodes = (
(-62,386,l),
(51,519,l),
(138.172,450.661,l),
(244,503,l),
(440,421,l),
(420,373.15,l),
(420,90,l),
(259,-5,l),
(179,24.4,l),
(179,-199,l),
(60,-199,l),
(60,68.15,l),
(36,77,l),
(60.85,146.6,l),
(60,355,l),
(52,364,l),
(15,321,l)
);
},
{
closed = 1;
nodes = (
(180,151.3,l),
(247,127,l),
(301,158,l),
(301,350,l),
(248,373,l),
(180,338,l)
);
}
);
width = 460;
},
{
layerId = "49D686F5-66D9-47EB-9547-64EB47576527";
shapes = (
{
closed = 1;
nodes = (
(5,451,l),
(65,504,l),
(132.808,438,l),
(235,505,l),
(392,404,l),
(364,359.2,l),
(364,92,l),
(227,-4,l),
(140,40.536,l),
(140,-139,l),
(84,-139,l),
(84,69.202,l),
(59,82,l),
(84,130.077,l),
(84,407,l),
(63,428,l),
(41,409,l)
);
},
{
closed = 1;
nodes = (
(140,104.101,l),
(223,62,l),
(308,122,l),
(308,391,l),
(235,439,l),
(140,376,l)
);
}
);
width = 434;
}
);
unicode = 112;
},
{
glyphname = d;
layers = (
{
layerId = "00243FEC-99B5-4F59-ACA5-E4FD9E2B7CEE";
shapes = (
{
closed = 1;
nodes = (
(27,72,l),
(39.989,110.284,l),
(39,414,l),
(114.683,453.258,l),
(19,510,l),
(19,575,l),
(114,674,l),
(200,592,l),
(169,559,l),
(334.475,460.503,l),
(375,443,l),
(424,417,l),
(400,371.571,l),
(400,92,l),
(241,-2,l)
);
},
{
closed = 1;
nodes = (
(159,151.506,l),
(227,128,l),
(281,160,l),
(281,354,l),
(228,379,l),
(159,342,l)
);
}
);
width = 440;
},
{
layerId = "49D686F5-66D9-47EB-9547-64EB47576527";
shapes = (
{
closed = 1;
nodes = (
(44,82,l),
(69,130.077,l),
(69,406,l),
(172.74,473.889,l),
(42,564,l),
(42,614,l),
(114,673,l),
(150,629,l),
(102,591,l),
(349,421,l),
(349,420.439,l),
(377,402,l),
(349,359.067,l),
(349,92,l),
(212,-4,l)
);
},
{
closed = 1;
nodes = (
(125,104.101,l),
(208,62,l),
(293,122,l),
(293,391,l),
(221.677,440.159,l),
(125,376,l)
);
}
);
width = 419;
}
);
unicode = 100;
},
{
glyphname = s;
layers = (
{
layerId = "00243FEC-99B5-4F59-ACA5-E4FD9E2B7CEE";
shapes = (
{
closed = 1;
nodes = (
(325,494,l),
(399,400,l),
(309,328,l),
(207,370,l),
(161,346,l),
(161,336,l),
(400,294,l),
(400,93,l),
(244,-1,l),
(121,49,l),
(87,15,l),
(3,101,l),
(93,189,l),
(234,133,l),
(280,161,l),
(280,194,l),
(41,236,l),
(41,420,l),
(201,502,l),
(289,466,l)
);
}
);
width = 422;
},
{
layerId = "49D686F5-66D9-47EB-9547-64EB47576527";
shapes = (
{
closed = 1;
nodes = (
(307,480,l),
(349,444,l),
(290,375,l),
(186,437,l),
(112,386,l),
(112,300,l),
(335,253,l),
(336,91,l),
(240,3,l),
(95,58,l),
(73,27,l),
(27,59,l),
(73,126,l),
(228,67,l),
(280,115,l),
(279,207,l),
(56,254,l),
(56,416,l),
(184,503,l),
(278,447,l)
);
}
);
width = 393;
}
);
unicode = 115;
},
{
glyphname = x;
layers = (
{
layerId = "00243FEC-99B5-4F59-ACA5-E4FD9E2B7CEE";
shapes = (
{
closed = 1;
nodes = (
(-21,434,l),
(86,502,l),
(200.482,368.245,l),
(338,505,l),
(459,416,l),
(387,320,l),
(350,347,l),
(278.931,276.589,l),
(383,155,l),
(402,169,l),
(472,71,l),
(363,-5,l),
(238.707,139.527,l),
(105,-4,l),
(0,62,l),
(64,164,l),
(85,150,l),
(159.935,231.122,l),
(62,345,l),
(43,332,l)
);
}
);
width = 441;
},
{
layerId = "49D686F5-66D9-47EB-9547-64EB47576527";
shapes = (
{
closed = 1;
nodes = (
(2,446,l),
(82,504,l),
(183.904,335.878,l),
(302,504,l),
(391,437,l),
(357,393,l),
(314,424,l),
(215.61,283.57,l),
(339,80,l),
(376,110,l),
(412,66,l),
(325,-4,l),
(223.224,163.539,l),
(106,-3,l),
(23,68,l),
(59,110,l),
(96,79,l),
(191.527,215.717,l),
(65,424,l),
(36,402,l)
);
}
);
width = 420;
}
);
unicode = 120;
},
{
glyphname = CR;
layers = (
{
attr = {
color = 1;
};
layerId = "BEC36202-99DD-4364-950D-19A679AB772D";
associatedMasterId = "00243FEC-99B5-4F59-ACA5-E4FD9E2B7CEE";
name = 1;
shapes = (
{
attr = {
fill = 1;
fillColor = (255,74,74,132);
};
closed = 1;
nodes = (
(-10628,-2039,o),
(-10538,-2137,o),
(-10427,-2137,cs),
(-10315,-2137,o),
(-10225,-2039,o),
(-10225,-1920,cs),
(-10225,-1800,o),
(-10315,-1702,o),
(-10427,-1702,cs),
(-10538,-1702,o),
(-10628,-1800,o),
(-10628,-1920,cs)
);
},
{
attr = {
fill = 1;
fillColor = (255,74,74,132);
};
closed = 1;
nodes = (
(-3530,114,o),
(-3440,16,o),
(-3329,16,cs),
(-3217,16,o),
(-3127,114,o),
(-3127,233,cs),
(-3127,353,o),
(-3217,451,o),
(-3329,451,cs),
(-3440,451,o),
(-3530,353,o),
(-3530,233,cs)
);
},
{
attr = {
fill = 1;
fillColor = (255,74,74,132);
};
closed = 1;
nodes = (
(-11441,-2039,o),
(-11351,-2137,o),
(-11240,-2137,cs),
(-11128,-2137,o),
(-11038,-2039,o),
(-11038,-1920,cs),
(-11038,-1800,o),
(-11128,-1702,o),
(-11240,-1702,cs),
(-11351,-1702,o),
(-11441,-1800,o),
(-11441,-1920,cs)
);
},
{
attr = {
fill = 1;
fillColor = (255,74,74,132);
};
closed = 1;
nodes = (
(-3895,-966,o),
(-3805,-1064,o),
(-3694,-1064,cs),
(-3582,-1064,o),
(-3492,-966,o),
(-3492,-847,cs),
(-3492,-727,o),
(-3582,-629,o),
(-3694,-629,cs),
(-3805,-629,o),
(-3895,-727,o),
(-3895,-847,cs)
);
}
